<svg width="76" height="61" viewBox="0 0 76 61" fill="none" xmlns="http://www.w3.org/2000/svg">
<path d="M17.374 47.5175V21.7118H13.134V13.8897H17.374V11.4042C17.374 3.9476 21.103 0 28.559 0H35.723V8.0414H31.922C29.217 8.0414 27.828 9.3573 27.828 12.0621V13.8897H34.919V21.7118H27.828V47.5175H17.374ZM46.361 60.9686L51.698 47.4444L38.466 13.8897H49.212L56.742 33.116L64.418 13.8897H75.164L56.45 60.9686H46.361Z" fill="white"></path>
<path d="M6.853 49.0405C10.639 49.0405 13.707 45.9721 13.707 42.187C13.707 38.4019 10.639 35.3335 6.853 35.3335C3.068 35.3335 0 38.4019 0 42.187C0 45.9721 3.068 49.0405 6.853 49.0405Z" fill="#9DE85B"></path>
<path d="M6.853 49.0405C10.639 49.0405 13.707 45.9721 13.707 42.187C13.707 38.4019 10.639 35.3335 6.853 35.3335C3.068 35.3335 0 38.4019 0 42.187C0 45.9721 3.068 49.0405 6.853 49.0405Z" fill="url(#paint0_linear_148_125)"></path>
<defs>
<linearGradient id="paint0_linear_148_125" x1="6.853" y1="35.3335" x2="6.853" y2="49.0405" gradientUnits="userSpaceOnUse">
<stop stop-color="#9DE85B"></stop>
<stop offset="1" stop-color="#1DEF3B"></stop>
</linearGradient>
</defs>
</svg>