<svg width="127" height="127" viewBox="0 0 127 127" fill="none" xmlns="http://www.w3.org/2000/svg">
<path d="M0 7C0 3.134 3.13401 0 7 0H120C123.866 0 127 3.134 127 7V120C127 123.866 123.866 127 120 127H7C3.134 127 0 123.866 0 120V7Z" fill="url(#paint0_linear_148_120)"></path>
<path d="M48.6013 80.518C45.7145 80.518 43.3744 78.177 43.3744 75.291V56.832C43.3744 55.661 42.4252 54.712 41.2544 54.712C40.0835 54.712 39.1343 53.763 39.1343 52.592V49.01C39.1343 47.839 40.0835 46.89 41.2544 46.89C42.4252 46.89 43.3744 45.941 43.3744 44.77V44.404C43.3744 36.948 47.1027 33 54.5593 33H57.7027C59.9233 33 61.7234 34.8 61.7234 37.021V37.24C61.7234 39.339 60.0215 41.041 57.922 41.041C55.2172 41.041 53.8282 42.357 53.8282 45.062C53.8282 46.071 54.6465 46.89 55.6558 46.89H57.3738C59.3319 46.89 60.9193 48.477 60.9193 50.435V51.166C60.9193 53.124 59.3319 54.712 57.3738 54.712C55.4156 54.712 53.8282 56.299 53.8282 58.257V75.291C53.8282 78.177 51.488 80.518 48.6013 80.518ZM79.2628 93.969C75.9498 93.969 73.6785 90.631 74.8945 87.549L76.6843 83.013C77.3356 81.362 77.3358 79.526 76.6849 77.876L67.1581 53.717C65.8657 50.439 68.2814 46.89 71.8044 46.89C73.8599 46.89 75.7055 48.149 76.4551 50.063L76.8122 50.975C78.9379 56.403 86.6099 56.428 88.7712 51.014L89.163 50.033C89.9208 48.135 91.7586 46.89 93.8025 46.89C97.3322 46.89 99.7486 50.451 98.4448 53.731L83.6268 91.007C82.9161 92.795 81.1868 93.969 79.2628 93.969Z" fill="url(#paint1_linear_148_120)"></path>
<path d="M32.8535 82.04C36.6386 82.04 39.707 78.972 39.707 75.187C39.707 71.402 36.6386 68.333 32.8535 68.333C29.0684 68.333 26 71.402 26 75.187C26 78.972 29.0684 82.04 32.8535 82.04Z" fill="url(#paint2_linear_148_120)"></path>
<path d="M32.8535 82.04C36.6386 82.04 39.707 78.972 39.707 75.187C39.707 71.402 36.6386 68.333 32.8535 68.333C29.0684 68.333 26 71.402 26 75.187C26 78.972 29.0684 82.04 32.8535 82.04Z" fill="url(#paint3_linear_148_120)"></path>
<path d="M43.1485 79.9V54.43H38.9636V46.709H43.1485V44.256C43.1485 36.896 46.8284 33 54.188 33H61.2591V40.937H57.5071C54.8374 40.937 53.4665 42.236 53.4665 44.905V46.709H60.4654V54.43H53.4665V79.9H43.1485ZM71.7586 93.176L77.0259 79.828L63.9661 46.709H74.5726L82.0045 65.686L89.5806 46.709H100.187L81.7158 93.176H71.7586Z" fill="black"></path>
<path d="M32.7644 81.403C36.5003 81.403 39.5288 78.374 39.5288 74.638C39.5288 70.903 36.5003 67.874 32.7644 67.874C29.0285 67.874 26 70.903 26 74.638C26 78.374 29.0285 81.403 32.7644 81.403Z" fill="white"></path>
<defs>
<linearGradient id="paint0_linear_148_120" x1="63.6064" y1="127" x2="63.6064" y2="0" gradientUnits="userSpaceOnUse">
<stop stop-color="#9DE85B"></stop>
<stop offset="1" stop-color="#1DEF3B"></stop>
</linearGradient>
<linearGradient id="paint1_linear_148_120" x1="70.2012" y1="93.969" x2="70.2012" y2="33" gradientUnits="userSpaceOnUse">
<stop stop-color="#9DE85B"></stop>
<stop offset="1" stop-color="#1DEF3B"></stop>
</linearGradient>
<linearGradient id="paint2_linear_148_120" x1="32.865" y1="82.04" x2="32.865" y2="68.333" gradientUnits="userSpaceOnUse">
<stop stop-color="#9DE85B"></stop>
<stop offset="1" stop-color="#1DEF3B"></stop>
</linearGradient>
<linearGradient id="paint3_linear_148_120" x1="32.865" y1="82.04" x2="32.865" y2="68.333" gradientUnits="userSpaceOnUse">
<stop stop-color="#9DE85B"></stop>
<stop offset="1" stop-color="#1DEF3B"></stop>
</linearGradient>
</defs>
</svg>