<svg width="329" height="87" viewBox="0 0 329 87" fill="none" xmlns="http://www.w3.org/2000/svg">
<mask id="mask0_148_116" style="mask-type:luminance" maskUnits="userSpaceOnUse" x="0" y="0" width="329" height="87">
<path d="M328.888 0H0V86.1038H328.888V0Z" fill="white"></path>
</mask>
<g mask="url(#mask0_148_116)">
<path d="M14.3 46.344C6.37005 46.344 1.56 42.414 0 38.755L6.56995 34.283C7.10995 35.706 10.84 38.755 14.36 38.755C16.74 38.755 17.95 38.078 17.95 36.587C17.95 34.622 14.43 34.012 12.2 33.199C9.95995 32.386 1.48999 30.218 1.48999 23.24C1.48999 16.396 7.58998 13.483 14.23 13.483C21.21 13.483 25.7499 16.871 27.4399 20.191L21.21 24.324C20.26 22.969 16.87 20.868 13.89 20.868C11.72 20.868 10.84 21.681 10.84 22.765C10.84 24.866 14.3 25.475 16.53 26.289C18.84 27.102 27.3 29.473 27.3 36.248C27.3 42.888 22.29 46.344 14.3 46.344ZM37.6801 10.299C35.1801 10.299 32.53 8.33401 32.53 5.01401C32.53 1.76201 35.1801 0 37.6801 0C40.2601 0 42.9 1.76201 42.9 5.01401C42.9 8.33401 40.2601 10.299 37.6801 10.299ZM32.87 45.395V14.228H42.63L42.5601 45.395H32.87ZM50.0699 45.395V14.228H59.6899V17.074C61.9199 14.77 64.91 13.754 67.62 13.754C71 13.754 74.8 14.906 77.1 18.226C79.74 14.838 83.81 13.754 87.13 13.754C92.48 13.754 98.71 16.532 98.71 26.356V45.395H89.09V27.711C89.09 22.63 85.3 22.156 84.08 22.156C82.79 22.156 79.2 22.63 79.2 27.711V45.395H69.58V27.711C69.58 22.63 65.7899 22.156 64.5699 22.156C63.2799 22.156 59.6899 22.63 59.6899 27.711V45.395H50.0699ZM105.91 57.862V14.228H115.53V16.871C117.5 14.906 120.14 13.754 123.6 13.754C132 13.754 138.23 20.597 138.23 29.879C138.23 39.365 132 45.937 123.6 45.937C120.14 45.937 117.5 44.785 115.53 42.82V57.862H105.91ZM122.17 36.858C126.24 36.858 128.88 33.945 128.88 29.879C128.88 25.814 126.24 22.833 122.17 22.833C118.11 22.833 115.53 25.814 115.53 29.879C115.53 33.945 118.11 36.858 122.17 36.858ZM144.15 45.395V1.355H153.84L153.78 45.395H144.15ZM174.31 45.937C165.91 45.937 159.67 39.094 159.67 29.812C159.67 20.326 165.91 13.754 174.31 13.754C177.76 13.754 180.41 14.906 182.37 16.803V14.228H191.99V45.395H182.37V42.82C180.41 44.785 177.76 45.937 174.31 45.937ZM175.73 36.858C179.8 36.858 182.37 33.877 182.37 29.812C182.37 25.747 179.8 22.833 175.73 22.833C171.67 22.833 169.02 25.747 169.02 29.812C169.02 33.877 171.67 36.858 175.73 36.858Z" fill="black"></path>
<path d="M196.53 80.0402L199.73 78.0072C200.44 79.8872 203.28 81.8182 206.69 81.8182C209.84 81.8182 211.47 80.7512 211.47 78.4652C211.47 75.8732 207.65 75.2632 205.57 74.6532C203.54 74.0442 197.49 72.7732 197.49 67.8442C197.49 63.2712 201.45 61.0352 206.49 61.0352C211.31 61.0352 214.62 63.2202 215.73 65.8122L212.63 67.6922C211.92 66.1672 209.33 64.6432 206.33 64.6432C203.44 64.6432 201.91 65.8122 201.91 67.6412C201.91 70.0802 205.47 70.6392 207.55 71.2492C209.59 71.8592 215.89 73.2812 215.89 78.3122C215.89 83.0382 212.48 85.5792 206.64 85.5792C201.2 85.5792 197.69 83.0892 196.53 80.0402ZM239.32 61.5432H243.89V84.9182H239.32V81.3102C237.59 83.8002 234.9 85.3252 231.29 85.3252C224.69 85.3252 219.96 80.1922 219.96 73.2312C219.96 66.1672 224.69 61.1872 231.29 61.1872C234.9 61.1872 237.59 62.7122 239.32 65.1512V61.5432ZM231.9 81.0052C236.37 81.0052 239.32 77.7022 239.32 73.2312C239.32 68.7082 236.37 65.5072 231.9 65.5072C227.38 65.5072 224.43 68.7082 224.43 73.2312C224.43 77.7022 227.38 81.0052 231.9 81.0052ZM261.33 52.9042H265.4L262.7 58.1382H258.84L261.33 52.9042ZM266.46 61.5432H271.04V84.9182H266.46V82.1232C264.69 84.4102 261.94 85.3252 259.25 85.3252C254.73 85.3252 250 82.6822 250 75.9242V61.5432H254.57V75.2632C254.57 79.5832 257.62 81.3612 260.57 81.3612C263.47 81.3612 266.46 79.5832 266.46 75.2632V61.5432ZM295.74 51.8882H300.32V84.9182H295.74V81.3102C294.02 83.8002 291.32 85.3252 287.72 85.3252C281.11 85.3252 276.38 80.1922 276.38 73.2312C276.38 66.1672 281.11 61.1872 287.72 61.1872C291.32 61.1872 294.02 62.7122 295.74 65.1512V51.8882ZM288.33 81.0052C292.8 81.0052 295.74 77.7022 295.74 73.2312C295.74 68.7082 292.8 65.5072 288.33 65.5072C283.8 65.5072 280.86 68.7082 280.86 73.2312C280.86 77.7022 283.8 81.0052 288.33 81.0052ZM317.25 61.1372C324.06 61.1372 328.48 66.2692 328.48 73.2312V74.5522H310.08C310.54 78.7192 313.49 81.4122 317.55 81.4122C320.91 81.4122 323.04 79.8872 324.16 78.2612L327.36 80.5482C325.33 83.4952 321.82 85.3762 317.55 85.3762C310.44 85.3762 305.66 80.1922 305.66 73.2312C305.66 66.2692 310.23 61.1372 317.25 61.1372ZM317.25 64.7952C313.23 64.7952 310.64 67.4892 310.08 71.5542H324.21C323.65 67.6412 321.16 64.7952 317.25 64.7952Z" fill="white"></path>
<path d="M211.36 45.395V21.478H207.43V14.228H211.36V11.925C211.36 5.01399 214.81 1.35498 221.72 1.35498H228.36V8.80798H224.84C222.33 8.80798 221.05 10.027 221.05 12.534V14.228H227.62V21.478H221.05V45.395H211.36ZM238.22 57.862L243.17 45.327L230.91 14.228H240.87L247.85 32.048L254.96 14.228H264.92L247.57 57.862H238.22Z" fill="black"></path>
<path d="M201.61 46.806C205.12 46.806 207.96 43.963 207.96 40.454C207.96 36.946 205.12 34.103 201.61 34.103C198.1 34.103 195.26 36.946 195.26 40.454C195.26 43.963 198.1 46.806 201.61 46.806Z" fill="white"></path>
<path d="M201.61 46.806C205.12 46.806 207.96 43.963 207.96 40.454C207.96 36.946 205.12 34.103 201.61 34.103C198.1 34.103 195.26 36.946 195.26 40.454C195.26 43.963 198.1 46.806 201.61 46.806Z" fill="white"></path>
</g>
</svg>