<svg width="329" height="87" viewBox="0 0 329 87" fill="none" xmlns="http://www.w3.org/2000/svg">
<mask id="mask0_148_122" style="mask-type:luminance" maskUnits="userSpaceOnUse" x="0" y="0" width="329" height="87">
<path d="M328.888 0H0V86.1038H328.888V0Z" fill="white"></path>
</mask>
<g mask="url(#mask0_148_122)">
<path d="M14.3 46.3437C6.37005 46.3437 1.56 42.4139 0 38.7552L6.56995 34.2835C7.10995 35.7063 10.84 38.7552 14.36 38.7552C16.74 38.7552 17.95 38.0777 17.95 36.5871C17.95 34.6223 14.43 34.0125 12.2 33.1994C9.95995 32.3864 1.48999 30.2183 1.48999 23.2396C1.48999 16.3965 7.58998 13.483 14.23 13.483C21.21 13.483 25.7499 16.8707 27.4399 20.1907L21.21 24.3237C20.26 22.9686 16.87 20.8682 13.89 20.8682C11.72 20.8682 10.84 21.6813 10.84 22.7653C10.84 24.8657 14.3 25.4755 16.53 26.2885C18.84 27.1016 27.3 29.473 27.3 36.2483C27.3 42.8882 22.29 46.3437 14.3 46.3437ZM37.6801 10.2986C35.1801 10.2986 32.53 8.3337 32.53 5.0138C32.53 1.7616 35.1801 0 37.6801 0C40.2601 0 42.9 1.7616 42.9 5.0138C42.9 8.3337 40.2601 10.2986 37.6801 10.2986ZM32.87 45.3951V14.2283H42.63L42.5601 45.3951H32.87ZM50.0699 45.3951V14.2283H59.6899V17.074C61.9199 14.7704 64.91 13.754 67.62 13.754C71 13.754 74.8 14.9059 77.1 18.2258C79.74 14.8381 83.81 13.754 87.13 13.754C92.48 13.754 98.71 16.532 98.71 26.3563V45.3951H89.09V27.7114C89.09 22.6298 85.3 22.1555 84.08 22.1555C82.79 22.1555 79.2 22.6298 79.2 27.7114V45.3951H69.58V27.7114C69.58 22.6298 65.7899 22.1555 64.5699 22.1555C63.2799 22.1555 59.6899 22.6298 59.6899 27.7114V45.3951H50.0699ZM105.91 57.8618V14.2283H115.53V16.8707C117.5 14.9059 120.14 13.754 123.6 13.754C132 13.754 138.23 20.5972 138.23 29.8795C138.23 39.365 132 45.9371 123.6 45.9371C120.14 45.9371 117.5 44.7853 115.53 42.8205V57.8618H105.91ZM122.17 36.8581C126.24 36.8581 128.88 33.9447 128.88 29.8795C128.88 25.8143 126.24 22.8331 122.17 22.8331C118.11 22.8331 115.53 25.8143 115.53 29.8795C115.53 33.9447 118.11 36.8581 122.17 36.8581ZM144.15 45.3951V1.3551H153.84L153.78 45.3951H144.15ZM174.31 45.9371C165.91 45.9371 159.67 39.094 159.67 29.8117C159.67 20.3262 165.91 13.754 174.31 13.754C177.76 13.754 180.41 14.9059 182.37 16.803V14.2283H191.99V45.3951H182.37V42.8205C180.41 44.7853 177.76 45.9371 174.31 45.9371ZM175.73 36.8581C179.8 36.8581 182.37 33.877 182.37 29.8117C182.37 25.7465 179.8 22.8331 175.73 22.8331C171.67 22.8331 169.02 25.7465 169.02 29.8117C169.02 33.877 171.67 36.8581 175.73 36.8581Z" fill="white"></path>
<path d="M196.53 80.04L199.73 78.007C200.44 79.887 203.28 81.818 206.69 81.818C209.84 81.818 211.47 80.751 211.47 78.465C211.47 75.873 207.65 75.263 205.57 74.653C203.54 74.044 197.49 72.773 197.49 67.844C197.49 63.2708 201.45 61.035 206.49 61.035C211.31 61.035 214.62 63.22 215.73 65.8116L212.63 67.692C211.92 66.167 209.33 64.6428 206.33 64.6428C203.44 64.6428 201.91 65.8116 201.91 67.641C201.91 70.08 205.47 70.639 207.55 71.249C209.59 71.859 215.89 73.281 215.89 78.312C215.89 83.038 212.48 85.579 206.64 85.579C201.2 85.579 197.69 83.089 196.53 80.04ZM239.32 61.5431H243.89V84.918H239.32V81.31C237.59 83.8 234.9 85.325 231.29 85.325C224.69 85.325 219.96 80.192 219.96 73.231C219.96 66.167 224.69 61.1874 231.29 61.1874C234.9 61.1874 237.59 62.7119 239.32 65.151V61.5431ZM231.9 81.005C236.37 81.005 239.32 77.702 239.32 73.231C239.32 68.708 236.37 65.5067 231.9 65.5067C227.38 65.5067 224.43 68.708 224.43 73.231C224.43 77.702 227.38 81.005 231.9 81.005ZM261.33 52.9045H265.4L262.7 58.1385H258.84L261.33 52.9045ZM266.46 61.5431H271.04V84.918H266.46V82.123C264.69 84.41 261.94 85.325 259.25 85.325C254.73 85.325 250 82.682 250 75.924V61.5431H254.57V75.263C254.57 79.583 257.62 81.361 260.57 81.361C263.47 81.361 266.46 79.583 266.46 75.263V61.5431ZM295.74 51.8882H300.32V84.918H295.74V81.31C294.02 83.8 291.32 85.325 287.72 85.325C281.11 85.325 276.38 80.192 276.38 73.231C276.38 66.167 281.11 61.1874 287.72 61.1874C291.32 61.1874 294.02 62.7119 295.74 65.151V51.8882ZM288.33 81.005C292.8 81.005 295.74 77.702 295.74 73.231C295.74 68.708 292.8 65.5067 288.33 65.5067C283.8 65.5067 280.86 68.708 280.86 73.231C280.86 77.702 283.8 81.005 288.33 81.005ZM317.25 61.1366C324.06 61.1366 328.48 66.269 328.48 73.231V74.552H310.08C310.54 78.719 313.49 81.412 317.55 81.412C320.91 81.412 323.04 79.887 324.16 78.261L327.36 80.548C325.33 83.495 321.82 85.376 317.55 85.376C310.44 85.376 305.66 80.192 305.66 73.231C305.66 66.269 310.23 61.1366 317.25 61.1366ZM317.25 64.7953C313.23 64.7953 310.64 67.489 310.08 71.554H324.21C323.65 67.641 321.16 64.7953 317.25 64.7953Z" fill="#1DEF3B"></path>
<path d="M211.36 45.395V21.4779H207.43V14.2283H211.36V11.9246C211.36 5.01368 214.81 1.35498 221.72 1.35498H228.36V8.80788H224.84C222.33 8.80788 221.05 10.0275 221.05 12.5344V14.2283H227.62V21.4779H221.05V45.395H211.36ZM238.22 57.8617L243.17 45.3273L230.91 14.2283H240.87L247.85 32.0475L254.96 14.2283H264.92L247.57 57.8617H238.22Z" fill="white"></path>
<path d="M201.61 46.8064C205.12 46.8064 207.96 43.9625 207.96 40.4545C207.96 36.9464 205.12 34.1025 201.61 34.1025C198.1 34.1025 195.26 36.9464 195.26 40.4545C195.26 43.9625 198.1 46.8064 201.61 46.8064Z" fill="#9DE85B"></path>
<path d="M201.61 46.8064C205.12 46.8064 207.96 43.9625 207.96 40.4545C207.96 36.9464 205.12 34.1025 201.61 34.1025C198.1 34.1025 195.26 36.9464 195.26 40.4545C195.26 43.9625 198.1 46.8064 201.61 46.8064Z" fill="url(#paint0_linear_148_122)"></path>
</g>
<defs>
<linearGradient id="paint0_linear_148_122" x1="201.61" y1="34.1025" x2="201.61" y2="46.8064" gradientUnits="userSpaceOnUse">
<stop stop-color="#9DE85B"></stop>
<stop offset="1" stop-color="#1DEF3B"></stop>
</linearGradient>
</defs>
</svg>