<svg width="367" height="95" viewBox="0 0 367 95" fill="none" xmlns="http://www.w3.org/2000/svg">
<path d="M14.296 46.3437C6.36902 46.3437 1.558 42.4139 0 38.7552L6.57202 34.2835C7.11402 35.7063 10.841 38.7552 14.364 38.7552C16.735 38.7552 17.955 38.0777 17.955 36.5871C17.955 34.6223 14.432 34.0125 12.196 33.1994C9.95998 32.3864 1.49103 30.2183 1.49103 23.2396C1.49103 16.3965 7.58803 13.483 14.228 13.483C21.207 13.483 25.746 16.8707 27.44 20.1907L21.207 24.3237C20.258 22.9686 16.871 20.8682 13.89 20.8682C11.721 20.8682 10.841 21.6813 10.841 22.7653C10.841 24.8657 14.296 25.4755 16.532 26.2885C18.836 27.1016 27.305 29.473 27.305 36.2483C27.305 42.8882 22.291 46.3437 14.296 46.3437ZM37.683 10.2986C35.176 10.2986 32.534 8.3337 32.534 5.0138C32.534 1.7616 35.176 0 37.683 0C40.257 0 42.9 1.7616 42.9 5.0138C42.9 8.3337 40.257 10.2986 37.683 10.2986ZM32.872 45.3951V14.2283H42.629L42.561 45.3951H32.872ZM50.067 45.3951V14.2283H59.688V17.074C61.924 14.7704 64.905 13.754 67.616 13.754C71.003 13.754 74.798 14.9059 77.101 18.2258C79.744 14.8381 83.809 13.754 87.129 13.754C92.481 13.754 98.715 16.532 98.715 26.3563V45.3951H89.094V27.7114C89.094 22.6298 85.299 22.1555 84.08 22.1555C82.793 22.1555 79.202 22.6298 79.202 27.7114V45.3951H69.581V27.7114C69.581 22.6298 65.786 22.1555 64.567 22.1555C63.279 22.1555 59.688 22.6298 59.688 27.7114V45.3951H50.067ZM105.911 57.8618V14.2283H115.532V16.8707C117.497 14.9059 120.14 13.754 123.595 13.754C131.997 13.754 138.23 20.5972 138.23 29.8795C138.23 39.365 131.997 45.9371 123.595 45.9371C120.14 45.9371 117.497 44.7853 115.532 42.8205V57.8618H105.911ZM122.172 36.8581C126.238 36.8581 128.88 33.9447 128.88 29.8795C128.88 25.8143 126.238 22.8331 122.172 22.8331C118.107 22.8331 115.532 25.8143 115.532 29.8795C115.532 33.9447 118.107 36.8581 122.172 36.8581ZM144.155 45.3951V1.3551H153.844L153.776 45.3951H144.155ZM174.309 45.9371C165.908 45.9371 159.675 39.094 159.675 29.8117C159.675 20.3262 165.908 13.754 174.309 13.754C177.765 13.754 180.407 14.9059 182.372 16.803V14.2283H191.993V45.3951H182.372V42.8205C180.407 44.7853 177.765 45.9371 174.309 45.9371ZM175.732 36.8581C179.798 36.8581 182.372 33.877 182.372 29.8117C182.372 25.7465 179.798 22.8331 175.732 22.8331C171.667 22.8331 169.025 25.7465 169.025 29.8117C169.025 33.877 171.667 36.8581 175.732 36.8581Z" fill="white"></path>
<path d="M196.526 80.04L199.727 78.007C200.438 79.888 203.284 81.819 206.689 81.819C209.839 81.819 211.465 80.752 211.465 78.465C211.465 75.873 207.654 75.263 205.571 74.654C203.538 74.044 197.491 72.774 197.491 67.844C197.491 63.271 201.455 61.0352 206.485 61.0352C211.313 61.0352 214.616 63.2202 215.734 65.8118L212.634 67.692C211.923 66.168 209.331 64.643 206.333 64.643C203.437 64.643 201.912 65.8118 201.912 67.641C201.912 70.08 205.469 70.639 207.553 71.249C209.585 71.859 215.886 73.2819 215.886 78.312C215.886 83.038 212.482 85.579 206.638 85.579C201.201 85.579 197.694 83.089 196.526 80.04ZM231.546 61.1368C238.355 61.1368 242.776 66.269 242.776 73.231V74.552H224.381C224.838 78.719 227.786 81.412 231.851 81.412C235.205 81.412 237.339 79.888 238.457 78.262L241.658 80.548C239.626 83.496 236.119 85.376 231.851 85.376C224.737 85.376 219.96 80.193 219.96 73.231C219.96 66.269 224.533 61.1368 231.546 61.1368ZM231.546 64.7955C227.532 64.7955 224.94 67.489 224.381 71.554H238.508C237.949 67.641 235.459 64.7955 231.546 64.7955ZM266.713 61.5433H271.286V83.191C271.286 89.949 266.611 94.675 258.938 94.675C254.822 94.675 251.316 93.049 249.182 90.508L252.18 87.967C254.06 90 256.55 90.762 258.938 90.762C262.546 90.762 266.713 88.628 266.713 83.191V81.31C264.985 83.75 262.241 85.325 258.633 85.325C252.078 85.325 247.352 80.193 247.352 73.231C247.352 66.269 252.078 61.1876 258.633 61.1876C262.241 61.1876 264.985 62.7121 266.713 65.202V61.5433ZM259.243 81.006C263.766 81.006 266.713 77.703 266.713 73.231C266.713 68.708 263.766 65.5069 259.243 65.5069C254.771 65.5069 251.824 68.708 251.824 73.231C251.824 77.703 254.771 81.006 259.243 81.006ZM293.86 61.5433H298.43V84.918H293.86V82.124C292.08 84.41 289.34 85.325 286.64 85.325C282.12 85.325 277.394 82.683 277.394 75.924V61.5433H281.968V75.263C281.968 79.583 285.02 81.361 287.96 81.361C290.86 81.361 293.86 79.583 293.86 75.263V61.5433ZM309.11 65.8626C310.94 62.6612 314.09 61.2384 317.34 61.1876V65.5069C314.19 65.5577 309.11 66.93 309.11 72.926V84.918H304.54V61.5433H309.11V65.8626ZM331.6 85.376C324.54 85.376 319.61 80.193 319.61 73.231C319.61 66.168 324.54 61.086 331.6 61.086C338.61 61.086 343.49 66.168 343.49 73.231C343.49 80.193 338.61 85.376 331.6 85.376ZM331.6 81.006C336.02 81.006 338.97 77.652 338.97 73.231C338.97 68.759 336.02 65.5069 331.6 65.5069C327.13 65.5069 324.18 68.759 324.18 73.231C324.18 77.652 327.13 81.006 331.6 81.006ZM347.04 80.04L350.24 78.007C350.95 79.888 353.8 81.819 357.2 81.819C360.35 81.819 361.98 80.752 361.98 78.465C361.98 75.873 358.17 75.263 356.08 74.654C354.05 74.044 348 72.774 348 67.844C348 63.271 351.97 61.0352 357 61.0352C361.82 61.0352 365.13 63.2202 366.24 65.8118L363.15 67.692C362.43 66.168 359.84 64.643 356.84 64.643C353.95 64.643 352.42 65.8118 352.42 67.641C352.42 70.08 355.98 70.639 358.06 71.249C360.1 71.859 366.4 73.2819 366.4 78.312C366.4 83.038 362.99 85.579 357.15 85.579C351.71 85.579 348.21 83.089 347.04 80.04Z" fill="#1DEF3B"></path>
<path d="M211.358 45.395V21.4779H207.428V14.2283H211.358V11.9246C211.358 5.01368 214.814 1.35498 221.724 1.35498H228.364V8.80788H224.841C222.334 8.80788 221.047 10.0275 221.047 12.5344V14.2283H227.619V21.4779H221.047V45.395H211.358ZM238.224 57.8617L243.17 45.3273L230.907 14.2283H240.866L247.845 32.0475L254.959 14.2283H264.919L247.574 57.8617H238.224Z" fill="white"></path>
<path d="M201.607 46.8064C205.115 46.8064 207.959 43.9625 207.959 40.4545C207.959 36.9464 205.115 34.1025 201.607 34.1025C198.099 34.1025 195.255 36.9464 195.255 40.4545C195.255 43.9625 198.099 46.8064 201.607 46.8064Z" fill="#9DE85B"></path>
<path d="M201.607 46.8064C205.115 46.8064 207.959 43.9625 207.959 40.4545C207.959 36.9464 205.115 34.1025 201.607 34.1025C198.099 34.1025 195.255 36.9464 195.255 40.4545C195.255 43.9625 198.099 46.8064 201.607 46.8064Z" fill="url(#paint0_linear_148_123)"></path>
<defs>
<linearGradient id="paint0_linear_148_123" x1="201.607" y1="34.1025" x2="201.607" y2="46.8064" gradientUnits="userSpaceOnUse">
<stop stop-color="#9DE85B"></stop>
<stop offset="1" stop-color="#1DEF3B"></stop>
</linearGradient>
</defs>
</svg>