<svg width="257" height="57" viewBox="0 0 257 57" fill="none" xmlns="http://www.w3.org/2000/svg">
<mask id="mask0_148_124" style="mask-type:luminance" maskUnits="userSpaceOnUse" x="0" y="0" width="257" height="57">
<path d="M256.5 0H0V57H256.5V0Z" fill="white"></path>
</mask>
<g mask="url(#mask0_148_124)">
<path d="M13.745 44.6119C6.12299 44.6119 1.498 40.8336 0 37.3159L6.319 33.0165C6.84 34.3845 10.423 37.3159 13.81 37.3159C16.09 37.3159 17.263 36.6645 17.263 35.2313C17.263 33.3422 13.875 32.7559 11.726 31.9742C9.57601 31.1925 1.43301 29.1079 1.43301 22.3982C1.43301 15.8188 7.29599 13.0176 13.68 13.0176C20.39 13.0176 24.754 16.2748 26.383 19.4668L20.39 23.4405C19.478 22.1376 16.221 20.1182 13.354 20.1182C11.27 20.1182 10.423 20.8999 10.423 21.9422C10.423 23.9616 13.745 24.5479 15.895 25.3296C18.11 26.1113 26.253 28.3913 26.253 34.9056C26.253 41.2896 21.432 44.6119 13.745 44.6119ZM36.231 9.9559C33.82 9.9559 31.28 8.0668 31.28 4.8748C31.28 1.7479 33.82 0.0541992 36.231 0.0541992C38.706 0.0541992 41.247 1.7479 41.247 4.8748C41.247 8.0668 38.706 9.9559 36.231 9.9559ZM31.606 43.6999V13.7342H40.986L40.921 43.6999H31.606ZM48.138 43.6999V13.7342H57.388V16.4702C59.538 14.2553 62.404 13.2782 65.01 13.2782C68.267 13.2782 71.915 14.3856 74.13 17.5776C76.671 14.3205 80.579 13.2782 83.771 13.2782C88.917 13.2782 94.911 15.9491 94.911 25.3948V43.6999H85.66V26.6976C85.66 21.8119 82.012 21.3559 80.84 21.3559C79.602 21.3559 76.149 21.8119 76.149 26.6976V43.6999H66.899V26.6976C66.899 21.8119 63.251 21.3559 62.079 21.3559C60.841 21.3559 57.388 21.8119 57.388 26.6976V43.6999H48.138ZM101.83 55.6862V13.7342H111.08V16.2748C112.969 14.3856 115.51 13.2782 118.832 13.2782C126.91 13.2782 132.903 19.8576 132.903 28.7822C132.903 37.9022 126.91 44.2211 118.832 44.2211C115.51 44.2211 112.969 43.1136 111.08 41.2245V55.6862H101.83ZM117.464 35.4919C121.373 35.4919 123.913 32.6908 123.913 28.7822C123.913 24.8736 121.373 22.0073 117.464 22.0073C113.556 22.0073 111.08 24.8736 111.08 28.7822C111.08 32.6908 113.556 35.4919 117.464 35.4919ZM138.6 43.6999V1.3571H147.915L147.85 43.6999H138.6ZM167.592 44.2211C159.514 44.2211 153.521 37.6416 153.521 28.7171C153.521 19.5971 159.514 13.2782 167.592 13.2782C170.914 13.2782 173.455 14.3856 175.344 16.2096V13.7342H184.594V43.6999H175.344V41.2245C173.455 43.1136 170.914 44.2211 167.592 44.2211ZM168.96 35.4919C172.869 35.4919 175.344 32.6256 175.344 28.7171C175.344 24.8085 172.869 22.0073 168.96 22.0073C165.052 22.0073 162.511 24.8085 162.511 28.7171C162.511 32.6256 165.052 35.4919 168.96 35.4919Z" fill="white"></path>
<path d="M204.57 42.3429V19.3474H200.792V12.3771H204.57V10.1623C204.57 3.5177 207.893 0 214.537 0H220.921V7.1657H217.534C215.123 7.1657 213.886 8.3383 213.886 10.7486V12.3771H220.205V19.3474H213.886V42.3429H204.57ZM230.401 54.3292L235.156 42.2777L223.365 12.3771H232.941L239.651 29.5097L246.491 12.3771H256.067L239.391 54.3292H230.401Z" fill="white"></path>
<path d="M195.195 43.7001C198.568 43.7001 201.302 40.9659 201.302 37.593C201.302 34.2201 198.568 31.4858 195.195 31.4858C191.822 31.4858 189.088 34.2201 189.088 37.593C189.088 40.9659 191.822 43.7001 195.195 43.7001Z" fill="#9DE85B"></path>
<path d="M195.195 43.7001C198.568 43.7001 201.302 40.9659 201.302 37.593C201.302 34.2201 198.568 31.4858 195.195 31.4858C191.822 31.4858 189.088 34.2201 189.088 37.593C189.088 40.9659 191.822 43.7001 195.195 43.7001Z" fill="url(#paint0_linear_148_124)"></path>
</g>
<defs>
<linearGradient id="paint0_linear_148_124" x1="195.195" y1="31.4858" x2="195.195" y2="43.7001" gradientUnits="userSpaceOnUse">
<stop stop-color="#9DE85B"></stop>
<stop offset="1" stop-color="#1DEF3B"></stop>
</linearGradient>
</defs>
</svg>