<svg width="257" height="57" viewBox="0 0 257 57" fill="none" xmlns="http://www.w3.org/2000/svg">
<mask id="mask0_148_118" style="mask-type:luminance" maskUnits="userSpaceOnUse" x="0" y="0" width="257" height="57">
<path d="M256.5 0H0V57H256.5V0Z" fill="white"></path>
</mask>
<g mask="url(#mask0_148_118)">
<path d="M13.745 44.6122C6.12299 44.6122 1.498 40.8342 0 37.3162L6.319 33.0162C6.84 34.3842 10.423 37.3162 13.81 37.3162C16.09 37.3162 17.263 36.6642 17.263 35.2312C17.263 33.3422 13.875 32.7562 11.726 31.9742C9.57601 31.1922 1.43301 29.1082 1.43301 22.3982C1.43301 15.8192 7.29599 13.0182 13.68 13.0182C20.39 13.0182 24.754 16.2752 26.383 19.4672L20.39 23.4402C19.478 22.1382 16.221 20.1182 13.354 20.1182C11.27 20.1182 10.423 20.9002 10.423 21.9422C10.423 23.9622 13.745 24.5482 15.895 25.3302C18.11 26.1112 26.253 28.3912 26.253 34.9062C26.253 41.2902 21.432 44.6122 13.745 44.6122ZM36.231 9.95619C33.82 9.95619 31.28 8.0672 31.28 4.8752C31.28 1.7482 33.82 0.0541992 36.231 0.0541992C38.706 0.0541992 41.247 1.7482 41.247 4.8752C41.247 8.0672 38.706 9.95619 36.231 9.95619ZM31.606 43.7002V13.7342H40.986L40.921 43.7002H31.606ZM48.138 43.7002V13.7342H57.388V16.4702C59.538 14.2552 62.404 13.2782 65.01 13.2782C68.267 13.2782 71.915 14.3862 74.13 17.5782C76.671 14.3202 80.579 13.2782 83.771 13.2782C88.917 13.2782 94.911 15.9492 94.911 25.3952V43.7002H85.66V26.6982C85.66 21.8122 82.012 21.3562 80.84 21.3562C79.602 21.3562 76.149 21.8122 76.149 26.6982V43.7002H66.899V26.6982C66.899 21.8122 63.251 21.3562 62.079 21.3562C60.841 21.3562 57.388 21.8122 57.388 26.6982V43.7002H48.138ZM101.83 55.6862V13.7342H111.08V16.2752C112.969 14.3862 115.51 13.2782 118.832 13.2782C126.91 13.2782 132.903 19.8582 132.903 28.7822C132.903 37.9022 126.91 44.2212 118.832 44.2212C115.51 44.2212 112.969 43.1142 111.08 41.2242V55.6862H101.83ZM117.464 35.4922C121.373 35.4922 123.913 32.6912 123.913 28.7822C123.913 24.8742 121.373 22.0072 117.464 22.0072C113.556 22.0072 111.08 24.8742 111.08 28.7822C111.08 32.6912 113.556 35.4922 117.464 35.4922ZM138.6 43.7002V1.35719H147.915L147.85 43.7002H138.6ZM167.592 44.2212C159.514 44.2212 153.521 37.6422 153.521 28.7172C153.521 19.5972 159.514 13.2782 167.592 13.2782C170.914 13.2782 173.455 14.3862 175.344 16.2102V13.7342H184.594V43.7002H175.344V41.2242C173.455 43.1142 170.914 44.2212 167.592 44.2212ZM168.96 35.4922C172.869 35.4922 175.344 32.6262 175.344 28.7172C175.344 24.8082 172.869 22.0072 168.96 22.0072C165.052 22.0072 162.511 24.8082 162.511 28.7172C162.511 32.6262 165.052 35.4922 168.96 35.4922Z" fill="black"></path>
<path d="M204.57 42.343V19.347H200.792V12.377H204.57V10.162C204.57 3.518 207.893 0 214.537 0H220.921V7.166H217.534C215.123 7.166 213.886 8.33799 213.886 10.749V12.377H220.205V19.347H213.886V42.343H204.57ZM230.401 54.329L235.156 42.278L223.365 12.377H232.941L239.651 29.51L246.491 12.377H256.067L239.391 54.329H230.401Z" fill="black"></path>
<path d="M195.195 43.6998C198.568 43.6998 201.302 40.9658 201.302 37.5928C201.302 34.2198 198.568 31.4858 195.195 31.4858C191.822 31.4858 189.088 34.2198 189.088 37.5928C189.088 40.9658 191.822 43.6998 195.195 43.6998Z" fill="white"></path>
<path d="M195.195 43.6998C198.568 43.6998 201.302 40.9658 201.302 37.5928C201.302 34.2198 198.568 31.4858 195.195 31.4858C191.822 31.4858 189.088 34.2198 189.088 37.5928C189.088 40.9658 191.822 43.6998 195.195 43.6998Z" fill="white"></path>
</g>
</svg>