<svg width="126" height="124" viewBox="0 0 126 124" fill="none" xmlns="http://www.w3.org/2000/svg">
<path d="M72.6182 28.5889L87.7197 67.1514L88.1807 68.3281L88.6494 67.1543L104.046 28.5889H124.702L87.2539 122.793H67.9277L78.4492 96.1279L78.5225 95.9443L78.4502 95.7607L51.9609 28.5889H72.6182ZM31.1924 0.5H45.1807V15.7617H37.9932C35.1846 15.7617 32.9673 16.4451 31.4541 17.918C29.9384 19.3933 29.2148 21.5772 29.2148 24.3926V28.5889H43.5547V43.4062H29.2148V95.5918H9.07422V43.4062H0.5V28.5889H9.07422V23.0625C9.07422 15.6001 10.94 9.97978 14.5879 6.22461C18.2332 2.47226 23.7377 0.500084 31.1924 0.5Z" stroke="black"></path>
</svg>