<svg width="296" height="95" viewBox="0 0 296 95" fill="none" xmlns="http://www.w3.org/2000/svg">
<path d="M14.3 46.3437C6.37005 46.3437 1.56 42.4139 0 38.7552L6.56995 34.2835C7.10995 35.7063 10.84 38.7552 14.36 38.7552C16.74 38.7552 17.95 38.0777 17.95 36.5871C17.95 34.6223 14.43 34.0125 12.2 33.1994C9.95995 32.3864 1.48999 30.2183 1.48999 23.2396C1.48999 16.3965 7.58998 13.483 14.23 13.483C21.21 13.483 25.7499 16.8707 27.4399 20.1907L21.21 24.3237C20.26 22.9686 16.87 20.8682 13.89 20.8682C11.72 20.8682 10.84 21.6813 10.84 22.7653C10.84 24.8657 14.3 25.4755 16.53 26.2885C18.84 27.1016 27.3 29.473 27.3 36.2483C27.3 42.8882 22.29 46.3437 14.3 46.3437ZM37.6801 10.2986C35.1801 10.2986 32.53 8.3337 32.53 5.0138C32.53 1.7616 35.1801 0 37.6801 0C40.2601 0 42.9 1.7616 42.9 5.0138C42.9 8.3337 40.2601 10.2986 37.6801 10.2986ZM32.87 45.3951V14.2283H42.63L42.5601 45.3951H32.87ZM50.0699 45.3951V14.2283H59.6899V17.074C61.9199 14.7704 64.91 13.754 67.62 13.754C71 13.754 74.8 14.9059 77.1 18.2258C79.74 14.8381 83.81 13.754 87.13 13.754C92.48 13.754 98.71 16.532 98.71 26.3563V45.3951H89.09V27.7114C89.09 22.6298 85.3 22.1555 84.08 22.1555C82.79 22.1555 79.2 22.6298 79.2 27.7114V45.3951H69.58V27.7114C69.58 22.6298 65.7899 22.1555 64.5699 22.1555C63.2799 22.1555 59.6899 22.6298 59.6899 27.7114V45.3951H50.0699ZM105.91 57.8618V14.2283H115.53V16.8707C117.5 14.9059 120.14 13.754 123.6 13.754C132 13.754 138.23 20.5972 138.23 29.8795C138.23 39.365 132 45.9371 123.6 45.9371C120.14 45.9371 117.5 44.7853 115.53 42.8205V57.8618H105.91ZM122.17 36.8581C126.24 36.8581 128.88 33.9447 128.88 29.8795C128.88 25.8143 126.24 22.8331 122.17 22.8331C118.11 22.8331 115.53 25.8143 115.53 29.8795C115.53 33.9447 118.11 36.8581 122.17 36.8581ZM144.15 45.3951V1.3551H153.84L153.78 45.3951H144.15ZM174.31 45.9371C165.91 45.9371 159.67 39.094 159.67 29.8117C159.67 20.3262 165.91 13.754 174.31 13.754C177.76 13.754 180.41 14.9059 182.37 16.803V14.2283H191.99V45.3951H182.37V42.8205C180.41 44.7853 177.76 45.9371 174.31 45.9371ZM175.73 36.8581C179.8 36.8581 182.37 33.877 182.37 29.8117C182.37 25.7465 179.8 22.8331 175.73 22.8331C171.67 22.8331 169.02 25.7465 169.02 29.8117C169.02 33.877 171.67 36.8581 175.73 36.8581Z" fill="white"></path>
<path d="M216.39 61.5433H220.97V84.918H216.39V81.31C214.67 83.8 211.97 85.325 208.37 85.325C201.76 85.325 197.03 80.193 197.03 73.231C197.03 66.167 201.76 61.1876 208.37 61.1876C211.97 61.1876 214.67 62.712 216.39 65.1512V61.5433ZM208.98 81.006C213.45 81.006 216.39 77.703 216.39 73.231C216.39 68.708 213.45 65.5069 208.98 65.5069C204.45 65.5069 201.51 68.708 201.51 73.231C201.51 77.703 204.45 81.006 208.98 81.006ZM245.67 61.5433H250.25V83.191C250.25 89.949 245.57 94.675 237.9 94.675C233.78 94.675 230.28 93.049 228.14 90.508L231.14 87.967C233.02 90 235.51 90.762 237.9 90.762C241.51 90.762 245.67 88.628 245.67 83.191V81.31C243.94 83.75 241.2 85.325 237.59 85.325C231.04 85.325 226.31 80.193 226.31 73.231C226.31 66.269 231.04 61.1876 237.59 61.1876C241.2 61.1876 243.94 62.712 245.67 65.202V61.5433ZM238.2 81.006C242.73 81.006 245.67 77.703 245.67 73.231C245.67 68.708 242.73 65.5069 238.2 65.5069C233.73 65.5069 230.78 68.708 230.78 73.231C230.78 77.703 233.73 81.006 238.2 81.006ZM260.93 65.8626C262.76 62.6612 265.91 61.2384 269.16 61.1876V65.5069C266.01 65.5577 260.93 66.93 260.93 72.926V84.918H256.35V61.5433H260.93V65.8626ZM283.41 85.376C276.35 85.376 271.42 80.193 271.42 73.231C271.42 66.167 276.35 61.0859 283.41 61.0859C290.43 61.0859 295.3 66.167 295.3 73.231C295.3 80.193 290.43 85.376 283.41 85.376ZM283.41 81.006C287.83 81.006 290.78 77.652 290.78 73.231C290.78 68.759 287.83 65.5069 283.41 65.5069C278.94 65.5069 275.99 68.759 275.99 73.231C275.99 77.652 278.94 81.006 283.41 81.006Z" fill="#1DEF3B"></path>
<path d="M211.36 45.395V21.4779H207.43V14.2283H211.36V11.9246C211.36 5.01368 214.81 1.35498 221.72 1.35498H228.36V8.80788H224.84C222.33 8.80788 221.05 10.0275 221.05 12.5344V14.2283H227.62V21.4779H221.05V45.395H211.36ZM238.22 57.8617L243.17 45.3273L230.91 14.2283H240.87L247.84 32.0475L254.96 14.2283H264.92L247.57 57.8617H238.22Z" fill="white"></path>
<path d="M201.61 46.8064C205.12 46.8064 207.96 43.9625 207.96 40.4545C207.96 36.9464 205.12 34.1025 201.61 34.1025C198.1 34.1025 195.26 36.9464 195.26 40.4545C195.26 43.9625 198.1 46.8064 201.61 46.8064Z" fill="#9DE85B"></path>
<path d="M201.61 46.8064C205.12 46.8064 207.96 43.9625 207.96 40.4545C207.96 36.9464 205.12 34.1025 201.61 34.1025C198.1 34.1025 195.26 36.9464 195.26 40.4545C195.26 43.9625 198.1 46.8064 201.61 46.8064Z" fill="url(#paint0_linear_148_121)"></path>
<defs>
<linearGradient id="paint0_linear_148_121" x1="201.61" y1="34.1025" x2="201.61" y2="46.8064" gradientUnits="userSpaceOnUse">
<stop stop-color="#9DE85B"></stop>
<stop offset="1" stop-color="#1DEF3B"></stop>
</linearGradient>
</defs>
</svg>