<svg width="296" height="95" viewBox="0 0 296 95" fill="none" xmlns="http://www.w3.org/2000/svg">
<path d="M14.3 46.344C6.37005 46.344 1.56 42.414 0 38.755L6.56995 34.283C7.10995 35.706 10.84 38.755 14.36 38.755C16.74 38.755 17.95 38.078 17.95 36.587C17.95 34.622 14.43 34.012 12.2 33.199C9.95995 32.386 1.48999 30.218 1.48999 23.24C1.48999 16.396 7.58998 13.483 14.23 13.483C21.21 13.483 25.7499 16.871 27.4399 20.191L21.21 24.324C20.26 22.969 16.87 20.868 13.89 20.868C11.72 20.868 10.84 21.681 10.84 22.765C10.84 24.866 14.3 25.475 16.53 26.289C18.84 27.102 27.3 29.473 27.3 36.248C27.3 42.888 22.29 46.344 14.3 46.344ZM37.6801 10.299C35.1801 10.299 32.53 8.33401 32.53 5.01401C32.53 1.76201 35.1801 0 37.6801 0C40.2601 0 42.9 1.76201 42.9 5.01401C42.9 8.33401 40.2601 10.299 37.6801 10.299ZM32.87 45.395V14.228H42.63L42.5601 45.395H32.87ZM50.0699 45.395V14.228H59.6899V17.074C61.9199 14.77 64.91 13.754 67.62 13.754C71 13.754 74.8 14.906 77.1 18.226C79.74 14.838 83.81 13.754 87.13 13.754C92.48 13.754 98.71 16.532 98.71 26.356V45.395H89.09V27.711C89.09 22.63 85.3 22.156 84.08 22.156C82.79 22.156 79.2 22.63 79.2 27.711V45.395H69.58V27.711C69.58 22.63 65.7899 22.156 64.5699 22.156C63.2799 22.156 59.6899 22.63 59.6899 27.711V45.395H50.0699ZM105.91 57.862V14.228H115.53V16.871C117.5 14.906 120.14 13.754 123.6 13.754C132 13.754 138.23 20.597 138.23 29.879C138.23 39.365 132 45.937 123.6 45.937C120.14 45.937 117.5 44.785 115.53 42.82V57.862H105.91ZM122.17 36.858C126.24 36.858 128.88 33.945 128.88 29.879C128.88 25.814 126.24 22.833 122.17 22.833C118.11 22.833 115.53 25.814 115.53 29.879C115.53 33.945 118.11 36.858 122.17 36.858ZM144.15 45.395V1.35501H153.84L153.78 45.395H144.15ZM174.31 45.937C165.91 45.937 159.67 39.094 159.67 29.812C159.67 20.326 165.91 13.754 174.31 13.754C177.76 13.754 180.41 14.906 182.37 16.803V14.228H191.99V45.395H182.37V42.82C180.41 44.785 177.76 45.937 174.31 45.937ZM175.73 36.858C179.8 36.858 182.37 33.877 182.37 29.812C182.37 25.747 179.8 22.833 175.73 22.833C171.67 22.833 169.02 25.747 169.02 29.812C169.02 33.877 171.67 36.858 175.73 36.858Z" fill="black"></path>
<path d="M216.39 61.5429H220.97V84.9179H216.39V81.3099C214.67 83.7999 211.97 85.325 208.37 85.325C201.76 85.325 197.03 80.1929 197.03 73.2309C197.03 66.1669 201.76 61.1879 208.37 61.1879C211.97 61.1879 214.67 62.7119 216.39 65.1509V61.5429ZM208.98 81.006C213.45 81.006 216.39 77.7029 216.39 73.2309C216.39 68.7079 213.45 65.5069 208.98 65.5069C204.45 65.5069 201.51 68.7079 201.51 73.2309C201.51 77.7029 204.45 81.006 208.98 81.006ZM245.67 61.5429H250.25V83.1909C250.25 89.9489 245.57 94.6749 237.9 94.6749C233.78 94.6749 230.28 93.0489 228.14 90.5079L231.14 87.9669C233.02 90 235.51 90.7619 237.9 90.7619C241.51 90.7619 245.67 88.6279 245.67 83.1909V81.3099C243.94 83.7499 241.2 85.325 237.59 85.325C231.04 85.325 226.31 80.1929 226.31 73.2309C226.31 66.2689 231.04 61.1879 237.59 61.1879C241.2 61.1879 243.94 62.7119 245.67 65.2019V61.5429ZM238.2 81.006C242.73 81.006 245.67 77.7029 245.67 73.2309C245.67 68.7079 242.73 65.5069 238.2 65.5069C233.73 65.5069 230.78 68.7079 230.78 73.2309C230.78 77.7029 233.73 81.006 238.2 81.006ZM260.93 65.8629C262.76 62.6609 265.91 61.2379 269.16 61.1879V65.5069C266.01 65.5579 260.93 66.9299 260.93 72.9259V84.9179H256.35V61.5429H260.93V65.8629ZM283.41 85.3759C276.35 85.3759 271.42 80.1929 271.42 73.2309C271.42 66.1669 276.35 61.0859 283.41 61.0859C290.43 61.0859 295.3 66.1669 295.3 73.2309C295.3 80.1929 290.43 85.3759 283.41 85.3759ZM283.41 81.006C287.83 81.006 290.78 77.6519 290.78 73.2309C290.78 68.7589 287.83 65.5069 283.41 65.5069C278.94 65.5069 275.99 68.7589 275.99 73.2309C275.99 77.6519 278.94 81.006 283.41 81.006Z" fill="#1DEF3B"></path>
<path d="M211.36 45.395V21.478H207.43V14.228H211.36V11.925C211.36 5.01396 214.81 1.35498 221.72 1.35498H228.36V8.80798H224.84C222.33 8.80798 221.05 10.027 221.05 12.534V14.228H227.62V21.478H221.05V45.395H211.36ZM238.22 57.862L243.17 45.327L230.91 14.228H240.87L247.84 32.048L254.96 14.228H264.92L247.57 57.862H238.22Z" fill="black"></path>
<path d="M201.61 46.806C205.12 46.806 207.96 43.963 207.96 40.454C207.96 36.946 205.12 34.103 201.61 34.103C198.1 34.103 195.26 36.946 195.26 40.454C195.26 43.963 198.1 46.806 201.61 46.806Z" fill="#9DE85B"></path>
<path d="M201.61 46.806C205.12 46.806 207.96 43.963 207.96 40.454C207.96 36.946 205.12 34.103 201.61 34.103C198.1 34.103 195.26 36.946 195.26 40.454C195.26 43.963 198.1 46.806 201.61 46.806Z" fill="url(#paint0_linear_148_109)"></path>
<defs>
<linearGradient id="paint0_linear_148_109" x1="201.61" y1="34.103" x2="201.61" y2="46.806" gradientUnits="userSpaceOnUse">
<stop stop-color="#9DE85B"></stop>
<stop offset="1" stop-color="#1DEF3B"></stop>
</linearGradient>
</defs>
</svg>