<svg width="127" height="127" viewBox="0 0 127 127" fill="none" xmlns="http://www.w3.org/2000/svg">
<path d="M120 0H7C3.13401 0 0 3.13401 0 7V120C0 123.866 3.13401 127 7 127H120C123.866 127 127 123.866 127 120V7C127 3.13401 123.866 0 120 0Z" fill="white"></path>
<path d="M43.1485 79.9V54.43H38.9636V46.709H43.1485V44.256C43.1485 36.896 46.8284 33 54.188 33H61.2591V40.937H57.5071C54.8374 40.937 53.4665 42.236 53.4665 44.905V46.709H60.4654V54.43H53.4665V79.9H43.1485ZM71.7586 93.176L77.0259 79.828L63.9661 46.709H74.5726L82.0045 65.686L89.5806 46.709H100.187L81.7158 93.176H71.7586Z" fill="black"></path>
<path d="M32.7644 81.403C36.5003 81.403 39.5288 78.374 39.5288 74.638C39.5288 70.903 36.5003 67.874 32.7644 67.874C29.0285 67.874 26 70.903 26 74.638C26 78.374 29.0285 81.403 32.7644 81.403Z" fill="#9DE85B"></path>
</svg>