<svg width="124" height="127" viewBox="0 0 124 127" fill="none" xmlns="http://www.w3.org/2000/svg">
<path d="M117.165 0H6.83465C3.05998 0 0 3.13401 0 7V120C0 123.866 3.05998 127 6.83465 127H117.165C120.94 127 124 123.866 124 120V7C124 3.13401 120.94 0 117.165 0Z" fill="url(#paint0_linear_148_126)"></path>
<path d="M43.3744 81.5175V55.7118H39.1343V47.8897H43.3744V45.4042C43.3744 37.9476 47.1027 34 54.5593 34H61.7234V42.0414H57.922C55.2172 42.0414 53.8282 43.3573 53.8282 46.0621V47.8897H60.9193V55.7118H53.8282V81.5175H43.3744ZM72.3613 94.9686L77.6978 81.4444L64.466 47.8897H75.2123L82.742 67.116L90.4179 47.8897H101.164L82.4496 94.9686H72.3613Z" fill="white"></path>
<path d="M32.8535 83.0405C36.6386 83.0405 39.707 79.9721 39.707 76.187C39.707 72.4019 36.6386 69.3335 32.8535 69.3335C29.0684 69.3335 26 72.4019 26 76.187C26 79.9721 29.0684 83.0405 32.8535 83.0405Z" fill="#9DE85B"></path>
<path d="M32.8535 83.0405C36.6386 83.0405 39.707 79.9721 39.707 76.187C39.707 72.4019 36.6386 69.3335 32.8535 69.3335C29.0684 69.3335 26 72.4019 26 76.187C26 79.9721 29.0684 83.0405 32.8535 83.0405Z" fill="url(#paint1_linear_148_126)"></path>
<defs>
<linearGradient id="paint0_linear_148_126" x1="62.1039" y1="127" x2="62.1039" y2="0" gradientUnits="userSpaceOnUse">
<stop stop-color="#14322C"></stop>
<stop offset="1" stop-color="#0B1B18"></stop>
</linearGradient>
<linearGradient id="paint1_linear_148_126" x1="32.8535" y1="69.3335" x2="32.8535" y2="83.0405" gradientUnits="userSpaceOnUse">
<stop stop-color="#9DE85B"></stop>
<stop offset="1" stop-color="#1DEF3B"></stop>
</linearGradient>
</defs>
</svg>