<svg width="196" height="69" viewBox="0 0 196 69" fill="none" xmlns="http://www.w3.org/2000/svg">
<g clip-path="url(#clip0_238_49)">
<path d="M10.128 32.832C4.512 32.832 1.104 30.048 0 27.456L4.656 24.288C5.04 25.296 7.68 27.456 10.176 27.456C11.856 27.456 12.72 26.976 12.72 25.92C12.72 24.528 10.224 24.096 8.64 23.52C7.056 22.944 1.056 21.408 1.056 16.464C1.056 11.616 5.376 9.552 10.08 9.552C15.024 9.552 18.24 11.952 19.44 14.304L15.024 17.232C14.352 16.272 11.952 14.784 9.84 14.784C8.304 14.784 7.68 15.36 7.68 16.128C7.68 17.616 10.128 18.048 11.712 18.624C13.344 19.2 19.344 20.88 19.344 25.68C19.344 30.384 15.792 32.832 10.128 32.832ZM26.6963 7.296C24.9203 7.296 23.0483 5.904 23.0483 3.552C23.0483 1.248 24.9203 0 26.6963 0C28.5203 0 30.3923 1.248 30.3923 3.552C30.3923 5.904 28.5203 7.296 26.6963 7.296ZM23.2883 32.16V10.08H30.2003L30.1523 32.16H23.2883ZM35.4701 32.16V10.08H42.2861V12.096C43.8701 10.464 45.9821 9.744 47.9021 9.744C50.3021 9.744 52.9901 10.56 54.6221 12.912C56.4941 10.512 59.3741 9.744 61.7261 9.744C65.5181 9.744 69.9341 11.712 69.9341 18.672V32.16H63.1181V19.632C63.1181 16.032 60.4301 15.696 59.5661 15.696C58.6541 15.696 56.1101 16.032 56.1101 19.632V32.16H49.2941V19.632C49.2941 16.032 46.6061 15.696 45.7421 15.696C44.8301 15.696 42.2861 16.032 42.2861 19.632V32.16H35.4701ZM75.0326 40.992V10.08H81.8486V11.952C83.2406 10.56 85.1126 9.744 87.5606 9.744C93.5126 9.744 97.9286 14.592 97.9286 21.168C97.9286 27.888 93.5126 32.544 87.5606 32.544C85.1126 32.544 83.2406 31.728 81.8486 30.336V40.992H75.0326ZM86.5526 26.112C89.4326 26.112 91.3046 24.048 91.3046 21.168C91.3046 18.288 89.4326 16.176 86.5526 16.176C83.6726 16.176 81.8486 18.288 81.8486 21.168C81.8486 24.048 83.6726 26.112 86.5526 26.112ZM102.126 32.16V0.959999H108.99L108.942 32.16H102.126ZM123.489 32.544C117.537 32.544 113.121 27.696 113.121 21.12C113.121 14.4 117.537 9.744 123.489 9.744C125.937 9.744 127.809 10.56 129.201 11.904V10.08H136.017V32.16H129.201V30.336C127.809 31.728 125.937 32.544 123.489 32.544ZM124.497 26.112C127.377 26.112 129.201 24 129.201 21.12C129.201 18.24 127.377 16.176 124.497 16.176C121.617 16.176 119.745 18.24 119.745 21.12C119.745 24 121.617 26.112 124.497 26.112Z" fill="black"></path>
<path d="M148.48 51.348C151.684 51.348 155.032 53.184 155.032 57.972V68.16H151.792V58.44C151.792 55.38 149.632 54.12 147.544 54.12C145.492 54.12 143.368 55.38 143.368 58.44V68.16H140.128V44.76H143.368V53.616C144.628 51.996 146.572 51.348 148.48 51.348ZM171.022 51.6H174.262V68.16H171.022V66.18C169.762 67.8 167.818 68.448 165.91 68.448C162.706 68.448 159.358 66.576 159.358 61.788V51.6H162.598V61.32C162.598 64.38 164.758 65.64 166.846 65.64C168.898 65.64 171.022 64.38 171.022 61.32V51.6ZM187.517 51.348C192.197 51.348 195.545 54.876 195.545 59.88C195.545 64.812 192.197 68.448 187.517 68.448C184.961 68.448 183.053 67.368 181.829 65.604V68.16H178.589V44.76H181.829V54.156C183.053 52.428 184.961 51.348 187.517 51.348ZM187.085 65.388C190.289 65.388 192.377 63.048 192.377 59.88C192.377 56.676 190.289 54.408 187.085 54.408C183.917 54.408 181.829 56.676 181.829 59.88C181.829 63.048 183.917 65.388 187.085 65.388Z" fill="#1DEF3B"></path>
<path d="M149.736 32.16V15.216H146.952V10.08H149.736V8.44796C149.736 3.55196 152.184 0.959961 157.08 0.959961H161.784V6.23996H159.288C157.512 6.23996 156.6 7.10396 156.6 8.87996V10.08H161.256V15.216H156.6V32.16H149.736ZM168.769 40.992L172.273 32.112L163.585 10.08H170.641L175.585 22.704L180.625 10.08H187.681L175.393 40.992H168.769Z" fill="black"></path>
<path d="M142.828 33.1599C145.313 33.1599 147.328 31.1452 147.328 28.6599C147.328 26.1746 145.313 24.1599 142.828 24.1599C140.343 24.1599 138.328 26.1746 138.328 28.6599C138.328 31.1452 140.343 33.1599 142.828 33.1599Z" fill="#9DE85B"></path>
<path d="M142.828 33.1599C145.313 33.1599 147.328 31.1452 147.328 28.6599C147.328 26.1746 145.313 24.1599 142.828 24.1599C140.343 24.1599 138.328 26.1746 138.328 28.6599C138.328 31.1452 140.343 33.1599 142.828 33.1599Z" fill="url(#paint0_linear_238_49)"></path>
</g>
<defs>
<linearGradient id="paint0_linear_238_49" x1="142.828" y1="24.1599" x2="142.828" y2="33.1599" gradientUnits="userSpaceOnUse">
<stop stop-color="#9DE85B"></stop>
<stop offset="1" stop-color="#1DEF3B"></stop>
</linearGradient>
<clipPath id="clip0_238_49">
<rect width="196" height="69" fill="white"></rect>
</clipPath>
</defs>
</svg>