<svg width="197" height="69" viewBox="0 0 197 69" fill="none" xmlns="http://www.w3.org/2000/svg">
<g clip-path="url(#clip0_238_41)">
<path d="M10.128 32.832C4.512 32.832 1.104 30.048 0 27.456L4.656 24.288C5.04 25.296 7.68 27.456 10.176 27.456C11.856 27.456 12.72 26.976 12.72 25.92C12.72 24.528 10.224 24.096 8.64 23.52C7.056 22.944 1.056 21.408 1.056 16.464C1.056 11.616 5.376 9.552 10.08 9.552C15.024 9.552 18.24 11.952 19.44 14.304L15.024 17.232C14.352 16.272 11.952 14.784 9.84 14.784C8.304 14.784 7.68 15.36 7.68 16.128C7.68 17.616 10.128 18.048 11.712 18.624C13.344 19.2 19.344 20.88 19.344 25.68C19.344 30.384 15.792 32.832 10.128 32.832ZM26.6963 7.296C24.9203 7.296 23.0483 5.904 23.0483 3.552C23.0483 1.248 24.9203 0 26.6963 0C28.5203 0 30.3923 1.248 30.3923 3.552C30.3923 5.904 28.5203 7.296 26.6963 7.296ZM23.2883 32.16V10.08H30.2003L30.1523 32.16H23.2883ZM35.4701 32.16V10.08H42.2861V12.096C43.8701 10.464 45.9821 9.744 47.9021 9.744C50.3021 9.744 52.9901 10.56 54.6221 12.912C56.4941 10.512 59.3741 9.744 61.7261 9.744C65.5181 9.744 69.9341 11.712 69.9341 18.672V32.16H63.1181V19.632C63.1181 16.032 60.4301 15.696 59.5661 15.696C58.6541 15.696 56.1101 16.032 56.1101 19.632V32.16H49.2941V19.632C49.2941 16.032 46.6061 15.696 45.7421 15.696C44.8301 15.696 42.2861 16.032 42.2861 19.632V32.16H35.4701ZM75.0326 40.992V10.08H81.8486V11.952C83.2406 10.56 85.1126 9.744 87.5606 9.744C93.5126 9.744 97.9286 14.592 97.9286 21.168C97.9286 27.888 93.5126 32.544 87.5606 32.544C85.1126 32.544 83.2406 31.728 81.8486 30.336V40.992H75.0326ZM86.5526 26.112C89.4326 26.112 91.3046 24.048 91.3046 21.168C91.3046 18.288 89.4326 16.176 86.5526 16.176C83.6726 16.176 81.8486 18.288 81.8486 21.168C81.8486 24.048 83.6726 26.112 86.5526 26.112ZM102.126 32.16V0.959999H108.99L108.942 32.16H102.126ZM123.489 32.544C117.537 32.544 113.121 27.696 113.121 21.12C113.121 14.4 117.537 9.744 123.489 9.744C125.937 9.744 127.809 10.56 129.201 11.904V10.08H136.017V32.16H129.201V30.336C127.809 31.728 125.937 32.544 123.489 32.544ZM124.497 26.112C127.377 26.112 129.201 24 129.201 21.12C129.201 18.24 127.377 16.176 124.497 16.176C121.617 16.176 119.745 18.24 119.745 21.12C119.745 24 121.617 26.112 124.497 26.112Z" fill="white"></path>
<path d="M149.48 51.348C152.684 51.348 156.032 53.184 156.032 57.972V68.16H152.792V58.44C152.792 55.38 150.632 54.12 148.544 54.12C146.492 54.12 144.368 55.38 144.368 58.44V68.16H141.128V44.76H144.368V53.616C145.628 51.996 147.572 51.348 149.48 51.348ZM172.022 51.6H175.262V68.16H172.022V66.18C170.762 67.8 168.818 68.448 166.91 68.448C163.706 68.448 160.358 66.576 160.358 61.788V51.6H163.598V61.32C163.598 64.38 165.758 65.64 167.846 65.64C169.898 65.64 172.022 64.38 172.022 61.32V51.6ZM188.517 51.348C193.197 51.348 196.545 54.876 196.545 59.88C196.545 64.812 193.197 68.448 188.517 68.448C185.961 68.448 184.053 67.368 182.829 65.604V68.16H179.589V44.76H182.829V54.156C184.053 52.428 185.961 51.348 188.517 51.348ZM188.085 65.388C191.289 65.388 193.377 63.048 193.377 59.88C193.377 56.676 191.289 54.408 188.085 54.408C184.917 54.408 182.829 56.676 182.829 59.88C182.829 63.048 184.917 65.388 188.085 65.388Z" fill="#1DEF3B"></path>
<path d="M150.736 32.16V15.216H147.952V10.08H150.736V8.44796C150.736 3.55196 153.184 0.959961 158.08 0.959961H162.784V6.23996H160.288C158.512 6.23996 157.6 7.10396 157.6 8.87996V10.08H162.256V15.216H157.6V32.16H150.736ZM169.769 40.992L173.273 32.112L164.585 10.08H171.641L176.585 22.704L181.625 10.08H188.681L176.393 40.992H169.769Z" fill="white"></path>
<path d="M143.828 33.1599C146.313 33.1599 148.328 31.1452 148.328 28.6599C148.328 26.1746 146.313 24.1599 143.828 24.1599C141.343 24.1599 139.328 26.1746 139.328 28.6599C139.328 31.1452 141.343 33.1599 143.828 33.1599Z" fill="#9DE85B"></path>
<path d="M143.828 33.1599C146.313 33.1599 148.328 31.1452 148.328 28.6599C148.328 26.1746 146.313 24.1599 143.828 24.1599C141.343 24.1599 139.328 26.1746 139.328 28.6599C139.328 31.1452 141.343 33.1599 143.828 33.1599Z" fill="url(#paint0_linear_238_41)"></path>
</g>
<defs>
<linearGradient id="paint0_linear_238_41" x1="143.828" y1="24.1599" x2="143.828" y2="33.1599" gradientUnits="userSpaceOnUse">
<stop stop-color="#9DE85B"></stop>
<stop offset="1" stop-color="#1DEF3B"></stop>
</linearGradient>
<clipPath id="clip0_238_41">
<rect width="197" height="69" fill="white"></rect>
</clipPath>
</defs>
</svg>