<svg width="367" height="95" viewBox="0 0 367 95" fill="none" xmlns="http://www.w3.org/2000/svg">
<path d="M14.296 46.344C6.36902 46.344 1.558 42.414 0 38.755L6.57202 34.283C7.11402 35.706 10.841 38.755 14.364 38.755C16.735 38.755 17.955 38.078 17.955 36.587C17.955 34.622 14.432 34.012 12.196 33.199C9.95998 32.386 1.49103 30.218 1.49103 23.24C1.49103 16.396 7.58803 13.483 14.228 13.483C21.207 13.483 25.746 16.871 27.44 20.191L21.207 24.324C20.258 22.969 16.871 20.868 13.89 20.868C11.721 20.868 10.841 21.681 10.841 22.765C10.841 24.866 14.296 25.475 16.532 26.289C18.836 27.102 27.305 29.473 27.305 36.248C27.305 42.888 22.291 46.344 14.296 46.344ZM37.683 10.299C35.176 10.299 32.534 8.33401 32.534 5.01401C32.534 1.76201 35.176 0 37.683 0C40.257 0 42.9 1.76201 42.9 5.01401C42.9 8.33401 40.257 10.299 37.683 10.299ZM32.872 45.395V14.228H42.629L42.561 45.395H32.872ZM50.067 45.395V14.228H59.688V17.074C61.924 14.77 64.905 13.754 67.616 13.754C71.003 13.754 74.798 14.906 77.101 18.226C79.744 14.838 83.809 13.754 87.129 13.754C92.481 13.754 98.715 16.532 98.715 26.356V45.395H89.094V27.711C89.094 22.63 85.299 22.156 84.08 22.156C82.793 22.156 79.202 22.63 79.202 27.711V45.395H69.581V27.711C69.581 22.63 65.786 22.156 64.567 22.156C63.279 22.156 59.688 22.63 59.688 27.711V45.395H50.067ZM105.911 57.862V14.228H115.532V16.871C117.497 14.906 120.14 13.754 123.595 13.754C131.997 13.754 138.23 20.597 138.23 29.879C138.23 39.365 131.997 45.937 123.595 45.937C120.14 45.937 117.497 44.785 115.532 42.82V57.862H105.911ZM122.172 36.858C126.238 36.858 128.88 33.945 128.88 29.879C128.88 25.814 126.238 22.833 122.172 22.833C118.107 22.833 115.532 25.814 115.532 29.879C115.532 33.945 118.107 36.858 122.172 36.858ZM144.155 45.395V1.355H153.844L153.776 45.395H144.155ZM174.309 45.937C165.908 45.937 159.675 39.094 159.675 29.812C159.675 20.326 165.908 13.754 174.309 13.754C177.765 13.754 180.407 14.906 182.372 16.803V14.228H191.993V45.395H182.372V42.82C180.407 44.785 177.765 45.937 174.309 45.937ZM175.732 36.858C179.798 36.858 182.372 33.877 182.372 29.812C182.372 25.747 179.798 22.833 175.732 22.833C171.667 22.833 169.025 25.747 169.025 29.812C169.025 33.877 171.667 36.858 175.732 36.858Z" fill="black"></path>
<path d="M196.526 80.0402L199.727 78.0071C200.438 79.8881 203.284 81.8192 206.689 81.8192C209.839 81.8192 211.465 80.7521 211.465 78.4651C211.465 75.8731 207.654 75.2631 205.571 74.6541C203.538 74.0441 197.491 72.7741 197.491 67.8441C197.491 63.2711 201.455 61.0352 206.485 61.0352C211.313 61.0352 214.616 63.2202 215.734 65.8122L212.634 67.6921C211.923 66.1681 209.331 64.6432 206.333 64.6432C203.437 64.6432 201.912 65.8121 201.912 67.6411C201.912 70.0801 205.469 70.6391 207.553 71.2491C209.585 71.8591 215.886 73.2822 215.886 78.3122C215.886 83.0382 212.482 85.5792 206.638 85.5792C201.201 85.5792 197.694 83.0892 196.526 80.0402ZM231.546 61.1371C238.355 61.1371 242.776 66.2691 242.776 73.2311V74.5522H224.381C224.838 78.7192 227.786 81.4121 231.851 81.4121C235.205 81.4121 237.339 79.8881 238.457 78.2621L241.658 80.5482C239.626 83.4962 236.119 85.3762 231.851 85.3762C224.737 85.3762 219.96 80.1931 219.96 73.2311C219.96 66.2691 224.533 61.1371 231.546 61.1371ZM231.546 64.7952C227.532 64.7952 224.94 67.4891 224.381 71.5541H238.508C237.949 67.6411 235.459 64.7952 231.546 64.7952ZM266.713 61.5432H271.286V83.1912C271.286 89.9492 266.611 94.6751 258.938 94.6751C254.822 94.6751 251.316 93.0491 249.182 90.5081L252.18 87.9672C254.06 90.0002 256.55 90.7621 258.938 90.7621C262.546 90.7621 266.713 88.6282 266.713 83.1912V81.3102C264.985 83.7502 262.241 85.3252 258.633 85.3252C252.078 85.3252 247.352 80.1931 247.352 73.2311C247.352 66.2691 252.078 61.1881 258.633 61.1881C262.241 61.1881 264.985 62.7121 266.713 65.2021V61.5432ZM259.243 81.0062C263.766 81.0062 266.713 77.7031 266.713 73.2311C266.713 68.7081 263.766 65.5071 259.243 65.5071C254.771 65.5071 251.824 68.7081 251.824 73.2311C251.824 77.7031 254.771 81.0062 259.243 81.0062ZM293.86 61.5432H298.43V84.9182H293.86V82.1241C292.08 84.4101 289.34 85.3252 286.64 85.3252C282.12 85.3252 277.394 82.6832 277.394 75.9242V61.5432H281.968V75.2632C281.968 79.5832 285.02 81.3611 287.96 81.3611C290.86 81.3611 293.86 79.5832 293.86 75.2632V61.5432ZM309.11 65.8632C310.94 62.6612 314.09 61.2381 317.34 61.1881V65.5071C314.19 65.5581 309.11 66.9301 309.11 72.9261V84.9182H304.54V61.5432H309.11V65.8632ZM331.6 85.3762C324.54 85.3762 319.61 80.1931 319.61 73.2311C319.61 66.1681 324.54 61.0862 331.6 61.0862C338.61 61.0862 343.49 66.1681 343.49 73.2311C343.49 80.1931 338.61 85.3762 331.6 85.3762ZM331.6 81.0062C336.02 81.0062 338.97 77.6521 338.97 73.2311C338.97 68.7591 336.02 65.5071 331.6 65.5071C327.13 65.5071 324.18 68.7591 324.18 73.2311C324.18 77.6521 327.13 81.0062 331.6 81.0062ZM347.04 80.0402L350.24 78.0071C350.95 79.8881 353.8 81.8192 357.2 81.8192C360.35 81.8192 361.98 80.7521 361.98 78.4651C361.98 75.8731 358.17 75.2631 356.08 74.6541C354.05 74.0441 348 72.7741 348 67.8441C348 63.2711 351.97 61.0352 357 61.0352C361.82 61.0352 365.13 63.2202 366.24 65.8122L363.15 67.6921C362.43 66.1681 359.84 64.6432 356.84 64.6432C353.95 64.6432 352.42 65.8121 352.42 67.6411C352.42 70.0801 355.98 70.6391 358.06 71.2491C360.1 71.8591 366.4 73.2822 366.4 78.3122C366.4 83.0382 362.99 85.5792 357.15 85.5792C351.71 85.5792 348.21 83.0892 347.04 80.0402Z" fill="white"></path>
<path d="M211.358 45.395V21.478H207.428V14.228H211.358V11.925C211.358 5.01399 214.814 1.35498 221.724 1.35498H228.364V8.80798H224.841C222.334 8.80798 221.047 10.027 221.047 12.534V14.228H227.619V21.478H221.047V45.395H211.358ZM238.224 57.862L243.17 45.327L230.907 14.228H240.866L247.845 32.048L254.959 14.228H264.919L247.574 57.862H238.224Z" fill="black"></path>
<path d="M201.607 46.806C205.115 46.806 207.959 43.963 207.959 40.454C207.959 36.946 205.115 34.103 201.607 34.103C198.099 34.103 195.255 36.946 195.255 40.454C195.255 43.963 198.099 46.806 201.607 46.806Z" fill="white"></path>
<path d="M201.607 46.806C205.115 46.806 207.959 43.963 207.959 40.454C207.959 36.946 205.115 34.103 201.607 34.103C198.099 34.103 195.255 36.946 195.255 40.454C195.255 43.963 198.099 46.806 201.607 46.806Z" fill="white"></path>
</svg>